<svg width="269" height="78" viewBox="0 0 269 78" fill="none" xmlns="http://www.w3.org/2000/svg">
<rect y="-5" width="269" height="83" fill="white"/>
<path d="M109.083 46.14V43.13H116.223C117.599 43.13 118.661 42.745 119.408 41.975C120.178 41.1817 120.563 40.1317 120.563 38.825C120.563 37.495 120.189 36.4567 119.443 35.71C118.696 34.94 117.623 34.555 116.223 34.555H109.083V32.315H115.733C117.366 32.315 118.801 32.5133 120.038 32.91C121.298 33.3067 122.278 33.9717 122.978 34.905C123.701 35.815 124.063 37.0633 124.063 38.65V39.14C124.063 40.6333 123.759 41.905 123.153 42.955C122.546 43.9817 121.624 44.775 120.388 45.335C119.151 45.8717 117.599 46.14 115.733 46.14H109.083ZM106.353 46.14V20.31H109.783V46.14H106.353ZM109.083 33.925V31.685H115.278C116.724 31.685 117.786 31.3 118.463 30.53C119.163 29.7367 119.513 28.7333 119.513 27.52C119.513 26.2833 119.163 25.28 118.463 24.51C117.786 23.7167 116.724 23.32 115.278 23.32H109.083V20.31H114.683C117.483 20.31 119.571 20.905 120.948 22.095C122.324 23.2617 123.013 24.9533 123.013 27.17V27.66C123.013 29.2233 122.663 30.4717 121.963 31.405C121.263 32.315 120.283 32.9683 119.023 33.365C117.786 33.7383 116.339 33.925 114.683 33.925H109.083ZM129.652 46V27.31H132.312V35.01H132.172C132.172 32.28 132.767 30.285 133.957 29.025C135.17 27.7417 136.978 27.1 139.382 27.1H140.012V30.11H138.822C136.955 30.11 135.52 30.6117 134.517 31.615C133.513 32.595 133.012 34.0183 133.012 35.885V46H129.652ZM151.747 46.63C150.114 46.63 148.702 46.35 147.512 45.79C146.322 45.23 145.354 44.495 144.607 43.585C143.86 42.6517 143.3 41.6133 142.927 40.47C142.577 39.3267 142.402 38.16 142.402 36.97V36.34C142.402 35.1267 142.577 33.9483 142.927 32.805C143.3 31.6617 143.86 30.635 144.607 29.725C145.354 28.7917 146.299 28.0567 147.442 27.52C148.609 26.96 149.974 26.68 151.537 26.68C153.567 26.68 155.235 27.1233 156.542 28.01C157.872 28.8733 158.852 29.9933 159.482 31.37C160.135 32.7467 160.462 34.2167 160.462 35.78V37.285H143.872V34.765H158.012L157.242 36.13C157.242 34.8 157.032 33.6567 156.612 32.7C156.192 31.72 155.562 30.9617 154.722 30.425C153.882 29.8883 152.82 29.62 151.537 29.62C150.207 29.62 149.099 29.9233 148.212 30.53C147.349 31.1367 146.695 31.965 146.252 33.015C145.832 34.065 145.622 35.2783 145.622 36.655C145.622 37.985 145.832 39.1867 146.252 40.26C146.695 41.31 147.372 42.15 148.282 42.78C149.192 43.3867 150.347 43.69 151.747 43.69C153.217 43.69 154.407 43.3633 155.317 42.71C156.25 42.0567 156.81 41.2983 156.997 40.435H160.147C159.89 41.7183 159.377 42.8267 158.607 43.76C157.837 44.6933 156.869 45.405 155.702 45.895C154.535 46.385 153.217 46.63 151.747 46.63ZM176.538 46V40.4H175.978V33.925C175.978 32.6417 175.639 31.6733 174.963 31.02C174.309 30.3667 173.341 30.04 172.058 30.04C171.334 30.04 170.588 30.0517 169.818 30.075C169.048 30.0983 168.313 30.1217 167.613 30.145C166.913 30.1683 166.306 30.2033 165.793 30.25V27.31C166.306 27.2633 166.843 27.2283 167.403 27.205C167.986 27.1583 168.581 27.135 169.188 27.135C169.794 27.1117 170.378 27.1 170.938 27.1C172.851 27.1 174.414 27.3333 175.628 27.8C176.841 28.2433 177.739 28.9783 178.323 30.005C178.906 31.0317 179.198 32.42 179.198 34.17V46H176.538ZM170.413 46.49C169.013 46.49 167.799 46.2567 166.773 45.79C165.769 45.3 164.988 44.6 164.428 43.69C163.891 42.78 163.623 41.6833 163.623 40.4C163.623 39.07 163.914 37.9617 164.498 37.075C165.104 36.1883 165.979 35.5233 167.123 35.08C168.266 34.6133 169.643 34.38 171.253 34.38H176.328V36.9H171.113C169.759 36.9 168.721 37.2267 167.998 37.88C167.274 38.5333 166.913 39.3733 166.913 40.4C166.913 41.4267 167.274 42.255 167.998 42.885C168.721 43.515 169.759 43.83 171.113 43.83C171.906 43.83 172.664 43.69 173.388 43.41C174.111 43.1067 174.706 42.6167 175.173 41.94C175.663 41.24 175.931 40.2833 175.978 39.07L176.888 40.4C176.771 41.73 176.444 42.85 175.908 43.76C175.394 44.6467 174.671 45.3233 173.738 45.79C172.828 46.2567 171.719 46.49 170.413 46.49ZM193.17 46.63C191.84 46.63 190.615 46.385 189.495 45.895C188.375 45.405 187.395 44.7167 186.555 43.83C185.738 42.9433 185.096 41.9167 184.63 40.75C184.186 39.5833 183.965 38.3233 183.965 36.97V36.34C183.965 35.01 184.186 33.7617 184.63 32.595C185.073 31.4283 185.691 30.4017 186.485 29.515C187.301 28.6283 188.258 27.94 189.355 27.45C190.475 26.9367 191.711 26.68 193.065 26.68C194.488 26.68 195.783 26.9833 196.95 27.59C198.116 28.1733 199.073 29.095 199.82 30.355C200.566 31.615 200.986 33.2483 201.08 35.255L199.68 33.015V20.45H203.04V46H200.38V37.705H201.36C201.266 39.8283 200.823 41.555 200.03 42.885C199.236 44.1917 198.233 45.1483 197.02 45.755C195.83 46.3383 194.546 46.63 193.17 46.63ZM193.625 43.69C194.768 43.69 195.806 43.4333 196.74 42.92C197.673 42.4067 198.42 41.6717 198.98 40.715C199.54 39.735 199.82 38.5917 199.82 37.285V35.675C199.82 34.3917 199.528 33.3067 198.945 32.42C198.385 31.51 197.626 30.8217 196.67 30.355C195.736 29.865 194.71 29.62 193.59 29.62C192.353 29.62 191.256 29.9117 190.3 30.495C189.366 31.0783 188.631 31.895 188.095 32.945C187.581 33.995 187.325 35.2317 187.325 36.655C187.325 38.0783 187.593 39.3267 188.13 40.4C188.666 41.45 189.413 42.2667 190.37 42.85C191.326 43.41 192.411 43.69 193.625 43.69Z" fill="black"/>
<path d="M209.215 37.705V20.45H214.185V37.705H209.215ZM208.83 46V40.82H214.57V46H208.83Z" fill="#EA1D2C"/>
<path d="M67.115 53.63C66.1817 53.63 65.225 53.595 64.245 53.525C63.265 53.455 62.3667 53.3617 61.55 53.245V48.52C62.3667 48.6367 63.265 48.73 64.245 48.8C65.2483 48.8933 66.1583 48.94 66.975 48.94C68.4917 48.94 69.7167 48.765 70.65 48.415C71.6067 48.065 72.3067 47.5283 72.75 46.805C73.1933 46.105 73.415 45.195 73.415 44.075V40.26L74.43 38.02C74.3833 39.7233 74.045 41.1817 73.415 42.395C72.8083 43.6083 71.9567 44.5417 70.86 45.195C69.7633 45.825 68.4567 46.14 66.94 46.14C65.6333 46.14 64.4433 45.9067 63.37 45.44C62.32 44.95 61.4217 44.2733 60.675 43.41C59.9283 42.5467 59.3567 41.5433 58.96 40.4C58.5633 39.2333 58.365 37.9733 58.365 36.62V35.815C58.365 34.4617 58.575 33.2017 58.995 32.035C59.415 30.8683 60.0217 29.8533 60.815 28.99C61.6083 28.1267 62.5533 27.4617 63.65 26.995C64.7467 26.505 65.96 26.26 67.29 26.26C68.83 26.26 70.16 26.5983 71.28 27.275C72.4233 27.9517 73.3217 28.9433 73.975 30.25C74.6283 31.5567 74.9783 33.1317 75.025 34.975L74.255 35.185V26.82H78.7V43.725C78.7 46.0817 78.28 47.9833 77.44 49.43C76.6 50.8767 75.3167 51.9383 73.59 52.615C71.8867 53.2917 69.7283 53.63 67.115 53.63ZM68.69 41.415C69.5533 41.415 70.335 41.2283 71.035 40.855C71.735 40.4583 72.2833 39.8983 72.68 39.175C73.1 38.4517 73.31 37.5767 73.31 36.55V35.535C73.31 34.5317 73.0883 33.6917 72.645 33.015C72.225 32.315 71.665 31.79 70.965 31.44C70.265 31.0667 69.5183 30.88 68.725 30.88C67.7917 30.88 66.9633 31.1017 66.24 31.545C65.5167 31.9883 64.9567 32.6067 64.56 33.4C64.1633 34.1933 63.965 35.1267 63.965 36.2C63.965 37.2967 64.1633 38.2417 64.56 39.035C64.98 39.805 65.54 40.4 66.24 40.82C66.9633 41.2167 67.78 41.415 68.69 41.415Z" fill="#EA1D2C"/>
<rect x="82.2491" y="26" width="19.4224" height="20" rx="6" fill="#EA1D2C"/>
<ellipse cx="91.9603" cy="36" rx="7.03224" ry="7.24138" fill="white"/>
<path d="M87.4544 36.0219C87.4644 38.4711 89.4128 40.4395 91.8166 40.4286C94.7128 40.4156 99.0391 35.9696 99.0391 35.9696C99.0391 35.9696 94.677 31.5629 91.7808 31.5759C89.377 31.5868 87.4445 33.5726 87.4544 36.0219ZM88.9025 36.0154C88.8959 34.3776 90.1939 33.0586 91.7868 33.0514C93.3942 33.0441 94.6883 34.3515 94.6949 35.9892C94.7015 37.6122 93.418 38.9459 91.8106 38.9532C90.2177 38.9604 88.9091 37.6383 88.9025 36.0154Z" fill="#EA1D2C"/>
<ellipse cx="91.6254" cy="36.3448" rx="3.34869" ry="3.44828" fill="#EA1D2C"/>
</svg>
